<?xml version="1.0" encoding="UTF-8"?>
<!DOCTYPE svg PUBLIC "-//W3C//DTD SVG 1.1//EN" "http://www.w3.org/Graphics/SVG/1.1/DTD/svg11.dtd">
<!-- Creator: CorelDRAW 2017 -->
<svg xmlns="http://www.w3.org/2000/svg" xml:space="preserve" width="79.6623mm" height="76.7769mm" version="1.1" style="shape-rendering:geometricPrecision; text-rendering:geometricPrecision; image-rendering:optimizeQuality; fill-rule:evenodd; clip-rule:evenodd"
viewBox="0 0 15364.92 14808.4"
 xmlns:xlink="http://www.w3.org/1999/xlink">
 <defs>
  <style type="text/css">
   <![CDATA[
    .str1 {stroke:#373435;stroke-width:19.29;stroke-miterlimit:22.9256}
    .str0 {stroke:#A9ABAE;stroke-width:14.7;stroke-miterlimit:22.9256}
    .fil153 {fill:none;fill-rule:nonzero}
    .fil1 {fill:#F7F7F9;fill-rule:nonzero}
    .fil2 {fill:#F7F7F8;fill-rule:nonzero}
    .fil3 {fill:#F6F6F7;fill-rule:nonzero}
    .fil4 {fill:#F4F5F7;fill-rule:nonzero}
    .fil5 {fill:#F3F4F5;fill-rule:nonzero}
    .fil6 {fill:#F2F4F5;fill-rule:nonzero}
    .fil7 {fill:#F2F3F5;fill-rule:nonzero}
    .fil8 {fill:#F2F3F4;fill-rule:nonzero}
    .fil9 {fill:#F1F2F4;fill-rule:nonzero}
    .fil10 {fill:#F0F1F3;fill-rule:nonzero}
    .fil11 {fill:#EFF1F2;fill-rule:nonzero}
    .fil12 {fill:#EFF0F2;fill-rule:nonzero}
    .fil13 {fill:#EEF0F2;fill-rule:nonzero}
    .fil14 {fill:#EDEFF2;fill-rule:nonzero}
    .fil15 {fill:#EDEEF0;fill-rule:nonzero}
    .fil16 {fill:#ECEEF0;fill-rule:nonzero}
    .fil17 {fill:#ECEDF0;fill-rule:nonzero}
    .fil18 {fill:#EBEDEF;fill-rule:nonzero}
    .fil19 {fill:#EAECEF;fill-rule:nonzero}
    .fil20 {fill:#EAECEF;fill-rule:nonzero}
    .fil21 {fill:#E9EBEE;fill-rule:nonzero}
    .fil22 {fill:#E9EBEE;fill-rule:nonzero}
    .fil23 {fill:#E9EBED;fill-rule:nonzero}
    .fil24 {fill:#E8EAED;fill-rule:nonzero}
    .fil25 {fill:#E7EAED;fill-rule:nonzero}
    .fil26 {fill:#E8EAEC;fill-rule:nonzero}
    .fil27 {fill:#E8E9EC;fill-rule:nonzero}
    .fil28 {fill:#E7E9EC;fill-rule:nonzero}
    .fil29 {fill:#E6E8EB;fill-rule:nonzero}
    .fil30 {fill:#E6E8EB;fill-rule:nonzero}
    .fil31 {fill:#E5E7EB;fill-rule:nonzero}
    .fil32 {fill:#E5E7EA;fill-rule:nonzero}
    .fil33 {fill:#E4E6EA;fill-rule:nonzero}
    .fil34 {fill:#E4E6E9;fill-rule:nonzero}
    .fil35 {fill:#E3E5E9;fill-rule:nonzero}
    .fil36 {fill:#E2E5E9;fill-rule:nonzero}
    .fil37 {fill:#E2E5E8;fill-rule:nonzero}
    .fil38 {fill:#E1E4E8;fill-rule:nonzero}
    .fil39 {fill:#E0E3E8;fill-rule:nonzero}
    .fil40 {fill:#E0E2E7;fill-rule:nonzero}
    .fil41 {fill:#DFE2E7;fill-rule:nonzero}
    .fil42 {fill:#DEE1E6;fill-rule:nonzero}
    .fil43 {fill:#DEE1E5;fill-rule:nonzero}
    .fil44 {fill:#DDE1E5;fill-rule:nonzero}
    .fil45 {fill:#DDE0E5;fill-rule:nonzero}
    .fil46 {fill:#DCE0E5;fill-rule:nonzero}
    .fil47 {fill:#DCE0E4;fill-rule:nonzero}
    .fil48 {fill:#DBDFE4;fill-rule:nonzero}
    .fil49 {fill:#DBDFE4;fill-rule:nonzero}
    .fil50 {fill:#DADEE4;fill-rule:nonzero}
    .fil51 {fill:#D9DDE3;fill-rule:nonzero}
    .fil52 {fill:#D8DDE2;fill-rule:nonzero}
    .fil53 {fill:#D8DCE2;fill-rule:nonzero}
    .fil54 {fill:#D7DCE2;fill-rule:nonzero}
    .fil55 {fill:#D7DCE1;fill-rule:nonzero}
    .fil56 {fill:#D6DBE1;fill-rule:nonzero}
    .fil57 {fill:#D5DBE0;fill-rule:nonzero}
    .fil58 {fill:#D4D9E0;fill-rule:nonzero}
    .fil59 {fill:#D3D9E0;fill-rule:nonzero}
    .fil60 {fill:#D3D8DF;fill-rule:nonzero}
    .fil61 {fill:#D2D8DE;fill-rule:nonzero}
    .fil62 {fill:#D1D7DE;fill-rule:nonzero}
    .fil63 {fill:#D2D7DD;fill-rule:nonzero}
    .fil64 {fill:#D1D7DD;fill-rule:nonzero}
    .fil65 {fill:#D1D6DD;fill-rule:nonzero}
    .fil66 {fill:#D0D6DD;fill-rule:nonzero}
    .fil67 {fill:#D0D6DC;fill-rule:nonzero}
    .fil68 {fill:#CFD5DC;fill-rule:nonzero}
    .fil69 {fill:#CFD5DC;fill-rule:nonzero}
    .fil70 {fill:#CED4DC;fill-rule:nonzero}
    .fil71 {fill:#CED4DB;fill-rule:nonzero}
    .fil72 {fill:#CED4DB;fill-rule:nonzero}
    .fil73 {fill:#CDD3DA;fill-rule:nonzero}
    .fil74 {fill:#CCD3DA;fill-rule:nonzero}
    .fil75 {fill:#CCD2DA;fill-rule:nonzero}
    .fil76 {fill:#CCD2D9;fill-rule:nonzero}
    .fil77 {fill:#CBD2D9;fill-rule:nonzero}
    .fil78 {fill:#CBD1D9;fill-rule:nonzero}
    .fil79 {fill:#CAD1D9;fill-rule:nonzero}
    .fil80 {fill:#CAD1D8;fill-rule:nonzero}
    .fil81 {fill:#C9D1D8;fill-rule:nonzero}
    .fil82 {fill:#C9D0D8;fill-rule:nonzero}
    .fil83 {fill:#C8D0D8;fill-rule:nonzero}
    .fil84 {fill:#C9D0D7;fill-rule:nonzero}
    .fil85 {fill:#C8CFD7;fill-rule:nonzero}
    .fil86 {fill:#C7CED7;fill-rule:nonzero}
    .fil87 {fill:#C7CED5;fill-rule:nonzero}
    .fil88 {fill:#C6CDD5;fill-rule:nonzero}
    .fil89 {fill:#C5CCD5;fill-rule:nonzero}
    .fil90 {fill:#C4CCD4;fill-rule:nonzero}
    .fil91 {fill:#C3CBD4;fill-rule:nonzero}
    .fil92 {fill:#C3CBD3;fill-rule:nonzero}
    .fil93 {fill:#C2CBD3;fill-rule:nonzero}
    .fil94 {fill:#C2CAD3;fill-rule:nonzero}
    .fil95 {fill:#C1CAD3;fill-rule:nonzero}
    .fil96 {fill:#C1C9D2;fill-rule:nonzero}
    .fil97 {fill:#C0C9D2;fill-rule:nonzero}
    .fil98 {fill:#C0C8D1;fill-rule:nonzero}
    .fil99 {fill:#BFC8D1;fill-rule:nonzero}
    .fil100 {fill:#BFC8D1;fill-rule:nonzero}
    .fil101 {fill:#BEC7D1;fill-rule:nonzero}
    .fil102 {fill:#BEC7D0;fill-rule:nonzero}
    .fil103 {fill:#BDC7D0;fill-rule:nonzero}
    .fil104 {fill:#BDC7D0;fill-rule:nonzero}
    .fil105 {fill:#BCC6CF;fill-rule:nonzero}
    .fil106 {fill:#BBC5CF;fill-rule:nonzero}
    .fil107 {fill:#BCC5CE;fill-rule:nonzero}
    .fil108 {fill:#BBC4CE;fill-rule:nonzero}
    .fil109 {fill:#BAC3CE;fill-rule:nonzero}
    .fil110 {fill:#BAC3CD;fill-rule:nonzero}
    .fil111 {fill:#B9C3CD;fill-rule:nonzero}
    .fil112 {fill:#B8C2CD;fill-rule:nonzero}
    .fil113 {fill:#B8C2CC;fill-rule:nonzero}
    .fil114 {fill:#B7C2CC;fill-rule:nonzero}
    .fil115 {fill:#B7C1CC;fill-rule:nonzero}
    .fil116 {fill:#B6C1CC;fill-rule:nonzero}
    .fil117 {fill:#B6C1CB;fill-rule:nonzero}
    .fil118 {fill:#B5C0CB;fill-rule:nonzero}
    .fil119 {fill:#B4C0CB;fill-rule:nonzero}
    .fil120 {fill:#B5BFCA;fill-rule:nonzero}
    .fil121 {fill:#B5BFCA;fill-rule:nonzero}
    .fil122 {fill:#B4BFCA;fill-rule:nonzero}
    .fil123 {fill:#B3BFCA;fill-rule:nonzero}
    .fil124 {fill:#B3BEC9;fill-rule:nonzero}
    .fil125 {fill:#B3BEC9;fill-rule:nonzero}
    .fil126 {fill:#B2BEC9;fill-rule:nonzero}
    .fil127 {fill:#B2BDC8;fill-rule:nonzero}
    .fil128 {fill:#B1BDC8;fill-rule:nonzero}
    .fil129 {fill:#B0BCC8;fill-rule:nonzero}
    .fil130 {fill:#B0BCC7;fill-rule:nonzero}
    .fil131 {fill:#AFBCC7;fill-rule:nonzero}
    .fil132 {fill:#AFBBC6;fill-rule:nonzero}
    .fil133 {fill:#AFBBC6;fill-rule:nonzero}
    .fil134 {fill:#AEBAC6;fill-rule:nonzero}
    .fil135 {fill:#AEBAC6;fill-rule:nonzero}
    .fil136 {fill:#ADB9C5;fill-rule:nonzero}
    .fil137 {fill:#ACB9C5;fill-rule:nonzero}
    .fil138 {fill:#ABB8C5;fill-rule:nonzero}
    .fil139 {fill:#ABB8C4;fill-rule:nonzero}
    .fil140 {fill:#ABB8C4;fill-rule:nonzero}
    .fil141 {fill:#AAB7C4;fill-rule:nonzero}
    .fil142 {fill:#AAB6C3;fill-rule:nonzero}
    .fil143 {fill:#A9B6C3;fill-rule:nonzero}
    .fil144 {fill:#A8B5C2;fill-rule:nonzero}
    .fil145 {fill:#A8B5C2;fill-rule:nonzero}
    .fil146 {fill:#A7B5C2;fill-rule:nonzero}
    .fil147 {fill:#A7B4C1;fill-rule:nonzero}
    .fil148 {fill:#A6B4C1;fill-rule:nonzero}
    .fil149 {fill:#A6B4C1;fill-rule:nonzero}
    .fil150 {fill:#A5B3C0;fill-rule:nonzero}
    .fil151 {fill:#A4B3C0;fill-rule:nonzero}
    .fil152 {fill:#A5B2BF;fill-rule:nonzero}
    .fil0 {fill:#A4B2BF;fill-rule:nonzero}
    .fil154 {fill:url(#id1)}
    .fil156 {fill:url(#id2)}
    .fil155 {fill:url(#id3)}
   ]]>
  </style>
     <clipPath id="id0" style="clip-rule:nonzero">
      <path d="M12971.22 9092.55c231.35,-638.55 936.74,-968.54 1575.27,-737.21 638.55,231.35 968.54,936.74 737.21,1575.29 -333.95,918.47 -846.22,1754.57 -1498.34,2466.13 -656.05,715.99 -1444.56,1300.77 -2325.79,1711.68 -1848.56,861.75 -3874.45,892.34 -5653.94,244.66 -1781.71,-648.66 -3315.3,-1974.84 -4177.8,-3824.38l-6.15 -13.81c-855.85,-1844.86 -884.7,-3864.32 -238.51,-5640.13 648.16,-1781.46 1974.33,-3315.3 3823.88,-4177.8l7.66 -3.45c881.23,-409.67 1832.76,-637.07 2796.87,-679.23 961.14,-41.93 1930.44,103.34 2849.89,438.27 638.55,231.35 968.56,936.74 737.21,1575.27 -231.35,638.55 -936.74,968.54 -1575.27,737.21 -616.86,-224.68 -1265.01,-322.1 -1905.79,-294.25 -622.51,27.14 -1245.51,175.86 -1833.5,444.21l-71.04 33.29c-1218.15,579.36 -2090.75,1592.05 -2517.43,2764.56 -427.66,1175.48 -409.67,2514.48 152.66,3743.24l30.84 66.58c579.11,1218.15 1592.03,2091 2764.56,2517.93 1185.59,431.37 2538.15,409.67 3775.54,-167.22 600.56,-279.94 1127.63,-667.16 1554.79,-1133.55 431.39,-470.83 772.49,-1029.47 997.17,-1647.29z"/>
     </clipPath>
  <linearGradient id="id1" gradientUnits="userSpaceOnUse" x1="220.23" y1="8162.62" x2="4064.42" y2="6370.26">
   <stop offset="0" style="stop-opacity:1; stop-color:#282829"/>
   <stop offset="0.741176" style="stop-opacity:1; stop-color:#727273"/>
   <stop offset="1" style="stop-opacity:1; stop-color:#BCBDBD"/>
  </linearGradient>
  <linearGradient id="id2" gradientUnits="userSpaceOnUse" xlink:href="#id1" x1="2544.83" y1="13124.58" x2="6389.44" y2="11332.03">
  </linearGradient>
  <linearGradient id="id3" gradientUnits="userSpaceOnUse" x1="867.35" y1="10801.56" x2="4711.17" y2="9008.39">
   <stop offset="0" style="stop-opacity:1; stop-color:#282829"/>
   <stop offset="0.768627" style="stop-opacity:1; stop-color:#727273"/>
   <stop offset="1" style="stop-opacity:1; stop-color:#BCBDBD"/>
  </linearGradient>
 </defs>
 <g id="Capa_x0020_1">
  <metadata id="CorelCorpID_0Corel-Layer"/>
  <g id="_1525238740800">
   <g>
    <g style="clip-path:url(#id0)">
     <polygon class="fil0" points="-679.23,1646.1 13348.27,-1239.82 16396.04,13574.28 2368.53,16460.21 "/>
     <path id="1" class="fil1" d="M14419.76 3851.44l307.31 1493.8 1459.32 -300.23 -307.33 -1493.8 -1459.3 300.23zm-101.93 -68.86l1627.7 -334.87 342.78 1666.16 -1627.68 334.87 -342.8 -1666.16z"/>
     <path id="2" class="fil2" d="M14351.8 3805.53l330.96 1608.7 1571.55 -323.32 -330.96 -1608.7 -1571.55 323.32zm-101.93 -68.86l1739.95 -357.96 366.43 1781.05 -1739.95 357.96 -366.43 -1781.05z"/>
     <path id="3" class="fil3" d="M14283.85 3759.63l354.6 1723.61 1683.81 -346.42 -354.6 -1723.61 -1683.81 346.42zm-101.92 -68.86l1852.19 -381.06 390.07 1895.97 -1852.2 381.06 -390.05 -1895.97z"/>
     <path id="4" class="fil3" d="M14215.9 3713.73l378.25 1838.51 1796.06 -369.51 -378.25 -1838.51 -1796.06 369.51zm-101.92 -68.86l1964.44 -404.15 413.7 2010.86 -1964.44 404.15 -413.7 -2010.86z"/>
     <path id="5" class="fil3" d="M14147.95 3667.82l401.9 1953.43 1908.31 -392.62 -401.88 -1953.43 -1908.33 392.62zm-101.92 -68.86l2076.69 -427.26 437.35 2125.8 -2076.69 427.24 -437.35 -2125.78z"/>
     <path id="6" class="fil4" d="M14080 3621.92l425.52 2068.32 2020.59 -415.71 -425.52 -2068.32 -2020.59 415.71zm-101.92 -68.86l2188.95 -450.35 460.99 2240.7 -2188.95 450.33 -460.99 -2240.68z"/>
     <path id="7" class="fil4" d="M14012.05 3576.01l449.17 2183.24 2132.84 -438.79 -449.17 -2183.24 -2132.84 438.79zm-101.92 -68.88l2301.22 -473.43 484.62 2355.61 -2301.2 473.43 -484.64 -2355.61z"/>
     <path id="8" class="fil5" d="M13944.12 3530.09l472.8 2298.15 2245.09 -461.88 -472.82 -2298.15 -2245.07 461.88zm-101.93 -68.86l2413.47 -496.52 508.27 2470.51 -2413.47 496.52 -508.27 -2470.51z"/>
     <path id="9" class="fil5" d="M13876.17 3484.18l496.44 2413.07 2357.33 -484.99 -496.44 -2413.05 -2357.33 484.97zm-101.92 -68.86l2525.71 -519.63 531.91 2585.42 -2525.73 519.63 -531.89 -2585.42z"/>
     <path id="10" class="fil5" d="M13808.22 3438.28l520.09 2527.96 2469.58 -508.07 -520.09 -2527.96 -2469.58 508.07zm-101.92 -68.86l2637.96 -542.71 555.54 2700.32 -2637.96 542.71 -555.54 -2700.32z"/>
     <path id="11" class="fil6" d="M13740.27 3392.38l543.74 2642.88 2581.83 -531.18 -543.72 -2642.86 -2581.85 531.16zm-101.92 -68.86l2750.21 -565.82 579.19 2815.23 -2750.21 565.82 -579.19 -2815.23z"/>
     <path id="12" class="fil7" d="M13672.32 3346.47l567.36 2757.78 2694.11 -554.27 -567.36 -2757.78 -2694.11 554.27zm-101.92 -68.86l2862.49 -588.91 602.81 2930.13 -2862.47 588.91 -602.83 -2930.13z"/>
     <path id="13" class="fil8" d="M13604.37 3300.57l591.01 2872.69 2806.36 -577.37 -591.01 -2872.67 -2806.36 577.35zm-101.92 -68.86l2974.74 -612.01 626.46 3045.04 -2974.74 612.01 -626.46 -3045.04z"/>
     <path id="14" class="fil9" d="M13536.44 3254.66l614.64 2987.59 2918.61 -600.46 -614.66 -2987.59 -2918.6 600.46zm-101.93 -68.86l3087 -635.1 650.11 3159.96 -3087 635.08 -650.11 -3159.94z"/>
     <path id="15" class="fil9" d="M13468.49 3208.76l638.28 3102.48 3030.85 -623.55 -638.28 -3102.48 -3030.85 623.55zm-101.93 -68.86l3199.25 -658.21 673.75 3274.88 -3199.25 658.19 -673.75 -3274.86z"/>
     <path id="16" class="fil10" d="M13400.54 3162.85l661.93 3217.4 3143.1 -646.64 -661.93 -3217.42 -3143.1 646.65zm-101.92 -68.88l3311.48 -681.28 697.4 3389.77 -3311.5 681.28 -697.38 -3389.77z"/>
     <path id="17" class="fil10" d="M13332.59 3116.95l685.58 3332.29 3255.36 -669.72 -685.56 -3332.31 -3255.38 669.74zm-101.92 -68.88l3423.74 -704.36 721.03 3504.67 -3423.74 704.38 -721.03 -3504.69z"/>
     <path id="18" class="fil10" d="M13264.64 3071.03l709.2 3447.23 3367.63 -692.83 -709.2 -3447.23 -3367.63 692.83zm-101.92 -68.86l3536.01 -727.47 744.65 3619.58 -3535.99 727.47 -744.67 -3619.58z"/>
     <path id="19" class="fil11" d="M13196.69 3025.12l732.85 3562.13 3479.88 -715.92 -732.85 -3562.13 -3479.88 715.92zm-101.92 -68.86l3648.26 -750.56 768.3 3734.48 -3648.26 750.58 -768.3 -3734.5z"/>
     <path id="20" class="fil12" d="M13128.74 2979.22l756.5 3677.04 3592.14 -739.02 -756.5 -3677.04 -3592.14 739.02zm-101.92 -68.86l3760.52 -773.66 791.95 3849.39 -3760.52 773.66 -791.95 -3849.39z"/>
     <path id="21" class="fil12" d="M13060.81 2933.31l780.12 3791.94 3704.39 -762.11 -780.14 -3791.94 -3704.37 762.11zm-101.93 -68.86l3872.77 -796.75 815.59 3964.29 -3872.77 796.77 -815.59 -3964.31z"/>
     <path id="22" class="fil13" d="M12992.86 2887.41l803.77 3906.85 3816.62 -785.22 -803.75 -3906.85 -3816.64 785.22zm-101.92 -68.86l3985.01 -819.86 839.24 4079.21 -3985.02 819.86 -839.22 -4079.21z"/>
     <path id="23" class="fil13" d="M12924.91 2841.5l827.4 4021.75 3928.9 -808.3 -827.4 -4021.75 -3928.9 808.3zm-101.92 -68.86l4097.26 -842.94 862.89 4194.1 -4097.28 842.96 -862.87 -4194.12z"/>
     <path id="24" class="fil14" d="M12856.96 2795.6l851.04 4136.66 4041.15 -831.41 -851.04 -4136.66 -4041.15 831.41zm-101.92 -68.86l4209.53 -866.05 886.5 4309.04 -4209.51 866.03 -886.51 -4309.02z"/>
     <path id="25" class="fil15" d="M12789.01 2749.69l874.69 4251.56 4153.4 -854.48 -874.69 -4251.58 -4153.4 854.5zm-101.92 -68.88l4321.79 -889.12 910.14 4423.93 -4321.79 889.12 -910.14 -4423.93z"/>
     <path id="26" class="fil15" d="M12721.06 2703.79l898.34 4366.47 4265.66 -877.58 -898.34 -4366.49 -4265.66 877.6zm-101.92 -68.88l4434.04 -912.22 933.79 4538.85 -4434.04 912.22 -933.79 -4538.85z"/>
     <path id="27" class="fil16" d="M12653.13 2657.87l921.97 4481.39 4377.91 -900.67 -921.98 -4481.39 -4377.89 900.67zm-101.93 -68.86l4546.29 -935.31 957.44 4653.74 -4546.29 935.31 -957.44 -4653.74z"/>
     <path id="28" class="fil16" d="M12585.18 2611.96l945.61 4596.31 4490.15 -923.78 -945.59 -4596.31 -4490.17 923.78zm-101.93 -68.86l4658.55 -958.42 981.08 4768.66 -4658.55 958.42 -981.08 -4768.66z"/>
     <path id="29" class="fil17" d="M12517.23 2566.06l969.24 4711.2 4602.42 -946.87 -969.24 -4711.2 -4602.42 946.87zm-101.92 -68.86l4770.8 -981.51 1004.71 4883.56 -4770.8 981.51 -1004.71 -4883.56z"/>
     <path id="30" class="fil18" d="M12449.28 2520.15l992.89 4826.12 4714.67 -969.97 -992.89 -4826.1 -4714.67 969.95zm-101.92 -68.86l4883.05 -1004.61 1028.34 4998.47 -4883.05 1004.61 -1028.34 -4998.47z"/>
     <path id="31" class="fil18" d="M12381.33 2474.25l1016.53 4941.01 4826.93 -993.06 -1016.53 -4941.01 -4826.93 993.06zm-101.92 -68.86l4995.31 -1027.7 1051.98 5113.37 -4995.31 1027.7 -1051.98 -5113.37z"/>
     <path id="32" class="fil19" d="M12313.38 2428.34l1040.18 5055.93 4939.18 -1016.17 -1040.18 -5055.91 -4939.18 1016.15zm-101.92 -68.86l5107.56 -1050.81 1075.63 5228.28 -5107.56 1050.81 -1075.63 -5228.28z"/>
     <path id="33" class="fil20" d="M12245.43 2382.44l1063.83 5170.82 5051.43 -1039.25 -1063.83 -5170.82 -5051.43 1039.25zm-101.92 -68.86l5219.81 -1073.89 1099.28 5343.2 -5219.81 1073.87 -1099.28 -5343.18z"/>
     <path id="34" class="fil20" d="M12177.5 2336.54l1087.45 5285.74 5163.69 -1062.36 -1087.45 -5285.72 -5163.69 1062.34zm-101.93 -68.86l5332.07 -1097 1122.92 5458.11 -5332.07 1096.98 -1122.92 -5458.09z"/>
     <path id="35" class="fil21" d="M12109.55 2290.63l1111.08 5400.64 5275.94 -1085.43 -1111.08 -5400.66 -5275.94 1085.45zm-101.93 -68.88l5444.34 -1120.07 1146.55 5573.01 -5444.32 1120.07 -1146.57 -5573.01z"/>
     <path id="36" class="fil22" d="M12041.6 2244.71l1134.73 5515.57 5388.2 -1108.53 -1134.73 -5515.55 -5388.2 1108.51zm-101.92 -68.86l5556.58 -1143.17 1170.2 5687.92 -5556.6 1143.17 -1170.18 -5687.92z"/>
     <path id="37" class="fil23" d="M11973.65 2198.8l1158.37 5630.47 5500.45 -1131.62 -1158.37 -5630.47 -5500.45 1131.62zm-101.92 -68.86l5668.83 -1166.26 1193.82 5802.82 -5668.83 1166.26 -1193.82 -5802.82z"/>
     <path id="38" class="fil24" d="M11905.7 2152.9l1182.02 5745.36 5612.7 -1154.71 -1182.02 -5745.36 -5612.7 1154.71zm-101.92 -68.86l5781.08 -1189.37 1217.47 5917.74 -5781.08 1189.37 -1217.47 -5917.74z"/>
     <path id="39" class="fil24" d="M11837.75 2106.99l1205.67 5860.28 5724.96 -1177.81 -1205.67 -5860.28 -5724.96 1177.81zm-101.92 -68.86l5893.34 -1212.46 1241.12 6032.63 -5893.34 1212.46 -1241.12 -6032.63z"/>
     <path id="40" class="fil25" d="M11769.82 2061.09l1229.29 5975.17 5837.21 -1200.9 -1229.29 -5975.17 -5837.21 1200.9zm-101.93 -68.86l6005.59 -1235.54 1264.76 6147.53 -6005.59 1235.56 -1264.76 -6147.55z"/>
     <path id="41" class="fil26" d="M11701.87 2015.18l1252.92 6090.09 5949.46 -1224.01 -1252.92 -6090.09 -5949.46 1224.01zm-101.93 -68.86l6117.86 -1258.65 1288.39 6262.44 -6117.84 1258.65 -1288.41 -6262.44z"/>
     <path id="42" class="fil27" d="M11633.92 1969.28l1276.57 6204.99 6061.72 -1247.1 -1276.57 -6204.99 -6061.72 1247.1zm-101.92 -68.86l6230.1 -1281.74 1312.04 6377.34 -6230.12 1281.76 -1312.02 -6377.36z"/>
     <path id="43" class="fil28" d="M11565.97 1923.38l1300.21 6319.9 6173.97 -1270.2 -1300.21 -6319.9 -6173.97 1270.2zm-101.92 -68.86l6342.35 -1304.84 1335.66 6492.27 -6342.35 1304.82 -1335.66 -6492.25z"/>
     <path id="44" class="fil28" d="M11498.02 1877.47l1323.86 6434.8 6286.22 -1293.27 -1323.86 -6434.82 -6286.22 1293.29zm-101.92 -68.88l6454.61 -1327.91 1359.31 6607.17 -6454.61 1327.93 -1359.31 -6607.19z"/>
     <path id="45" class="fil28" d="M11430.07 1831.57l1347.51 6549.71 6398.48 -1316.38 -1347.49 -6549.73 -6398.5 1316.4zm-101.92 -68.88l6566.86 -1351.02 1382.96 6722.09 -6566.86 1351.02 -1382.96 -6722.09z"/>
     <path id="46" class="fil29" d="M11362.12 1785.64l1371.13 6664.63 6510.75 -1339.46 -1371.13 -6664.63 -6510.75 1339.46zm-101.92 -68.86l6679.11 -1374.1 1406.6 6836.98 -6679.11 1374.12 -1406.6 -6837z"/>
     <path id="47" class="fil30" d="M11294.18 1739.74l1394.76 6779.54 6623 -1362.57 -1394.78 -6779.54 -6622.99 1362.57zm-101.93 -68.86l6791.39 -1397.21 1430.23 6951.9 -6791.37 1397.21 -1430.25 -6951.9z"/>
     <path id="48" class="fil31" d="M11226.23 1693.83l1418.41 6894.44 6735.24 -1385.66 -1418.41 -6894.44 -6735.24 1385.66zm-101.93 -68.86l6903.64 -1420.3 1453.88 7066.79 -6903.64 1420.3 -1453.88 -7066.79z"/>
     <path id="49" class="fil31" d="M11158.28 1647.93l1442.05 7009.35 6847.49 -1408.76 -1442.05 -7009.35 -6847.49 1408.76zm-101.92 -68.86l7015.87 -1443.4 1477.52 7181.71 -7015.89 1443.4 -1477.51 -7181.71z"/>
     <path id="50" class="fil32" d="M11090.33 1602.03l1465.7 7124.25 6959.75 -1431.85 -1465.7 -7124.25 -6959.75 1431.85zm-101.92 -68.86l7128.13 -1466.49 1501.15 7296.6 -7128.13 1466.49 -1501.15 -7296.6z"/>
     <path id="51" class="fil33" d="M11022.38 1556.12l1489.35 7239.17 7072 -1454.96 -1489.33 -7239.17 -7072.02 1454.96zm-101.92 -68.86l7240.38 -1489.6 1524.8 7411.52 -7240.38 1489.6 -1524.8 -7411.52z"/>
     <path id="52" class="fil34" d="M10954.43 1510.22l1512.97 7354.06 7184.27 -1478.05 -1512.97 -7354.06 -7184.27 1478.05zm-101.92 -68.86l7352.65 -1512.69 1548.43 7526.43 -7352.63 1512.67 -1548.44 -7526.42z"/>
     <path id="53" class="fil34" d="M10886.5 1464.31l1536.6 7468.98 7296.53 -1501.15 -1536.62 -7468.96 -7296.51 1501.13zm-101.93 -68.86l7464.91 -1535.79 1572.07 7641.35 -7464.91 1535.77 -1572.07 -7641.33z"/>
     <path id="54" class="fil35" d="M10818.55 1418.41l1560.25 7583.87 7408.78 -1524.22 -1560.27 -7583.89 -7408.76 1524.24zm-101.93 -68.88l7577.16 -1558.86 1595.72 7756.25 -7577.16 1558.86 -1595.72 -7756.25z"/>
     <path id="55" class="fil35" d="M10750.6 1372.48l1583.9 7698.81 7521.01 -1547.33 -1583.9 -7698.79 -7521.01 1547.31zm-101.92 -68.86l7689.4 -1581.97 1619.37 7871.16 -7689.41 1581.97 -1619.35 -7871.16z"/>
     <path id="56" class="fil36" d="M10682.65 1326.58l1607.54 7813.7 7633.27 -1570.41 -1607.54 -7813.7 -7633.27 1570.41zm-101.92 -68.86l7801.65 -1605.05 1642.99 7986.06 -7801.65 1605.05 -1642.99 -7986.06z"/>
     <path id="57" class="fil36" d="M10614.7 1280.68l1631.19 7928.62 7745.52 -1593.52 -1631.17 -7928.6 -7745.54 1593.5zm-101.92 -68.86l7913.9 -1628.16 1666.64 8100.97 -7913.9 1628.16 -1666.64 -8100.97z"/>
     <path id="58" class="fil37" d="M10546.75 1234.77l1654.82 8043.52 7857.8 -1616.61 -1654.82 -8043.52 -7857.8 1616.61zm-101.92 -68.86l8026.18 -1651.25 1690.27 8215.87 -8026.16 1651.25 -1690.29 -8215.87z"/>
     <path id="59" class="fil38" d="M10478.8 1188.87l1678.46 8158.43 7970.05 -1639.71 -1678.46 -8158.41 -7970.05 1639.69zm-101.92 -68.86l8138.43 -1674.35 1713.91 8330.78 -8138.43 1674.35 -1713.91 -8330.78z"/>
     <path id="60" class="fil38" d="M10410.87 1142.96l1702.09 8273.33 8082.3 -1662.8 -1702.11 -8273.33 -8082.28 1662.8zm-101.93 -68.86l8250.68 -1697.44 1737.56 8445.68 -8250.68 1697.44 -1737.56 -8445.68z"/>
     <path id="61" class="fil38" d="M10342.92 1097.06l1725.74 8388.22 8194.54 -1685.89 -1725.74 -8388.22 -8194.54 1685.89zm-101.93 -68.86l8362.94 -1720.55 1761.21 8560.6 -8362.94 1720.55 -1761.21 -8560.6z"/>
     <path id="62" class="fil39" d="M10274.97 1051.15l1749.38 8503.14 8306.79 -1708.99 -1749.36 -8503.14 -8306.81 1708.99zm-101.92 -68.86l8475.17 -1743.64 1784.85 8675.51 -8475.19 1743.62 -1784.83 -8675.49z"/>
     <path id="63" class="fil40" d="M10207.02 1005.25l1773.01 8618.03 8419.06 -1732.06 -1773.01 -8618.05 -8419.06 1732.08zm-101.92 -68.88l8587.42 -1766.7 1808.48 8790.41 -8587.42 1766.72 -1808.48 -8790.43z"/>
     <path id="64" class="fil41" d="M10139.07 959.34l1796.66 8732.95 8531.32 -1755.17 -1796.66 -8732.97 -8531.32 1755.19zm-101.92 -68.88l8699.7 -1789.81 1832.11 8905.32 -8699.68 1789.81 -1832.13 -8905.32z"/>
     <path id="65" class="fil41" d="M10071.12 913.42l1820.3 8847.86 8643.57 -1778.26 -1820.3 -8847.86 -8643.57 1778.26zm-101.92 -68.86l8811.95 -1812.9 1855.75 9020.22 -8811.95 1812.92 -1855.75 -9020.24z"/>
     <path id="66" class="fil41" d="M10003.19 867.52l1843.93 8962.78 8755.82 -1801.36 -1843.95 -8962.78 -8755.81 1801.36zm-101.93 -68.86l8924.21 -1836 1879.4 9135.13 -8924.21 1836 -1879.4 -9135.13z"/>
     <path id="67" class="fil42" d="M9935.24 821.61l1867.58 9077.68 8868.08 -1824.45 -1867.6 -9077.68 -8868.06 1824.45zm-101.93 -68.86l9036.46 -1859.09 1903.05 9250.03 -9036.46 1859.11 -1903.05 -9250.05z"/>
     <path id="68" class="fil42" d="M9867.29 775.71l1891.22 9192.59 8980.31 -1847.56 -1891.2 -9192.59 -8980.33 1847.56zm-101.92 -68.86l9148.69 -1882.2 1926.69 9364.95 -9148.71 1882.2 -1926.67 -9364.95z"/>
     <path id="69" class="fil43" d="M9799.34 729.8l1914.85 9307.49 9092.59 -1870.64 -1914.85 -9307.49 -9092.59 1870.64zm-101.92 -68.86l9260.95 -1905.28 1950.32 9479.84 -9260.95 1905.28 -1950.32 -9479.84z"/>
     <path id="70" class="fil44" d="M9731.39 683.9l1938.5 9422.4 9204.84 -1893.75 -1938.5 -9422.4 -9204.84 1893.75zm-101.92 -68.86l9373.22 -1928.39 1973.95 9594.76 -9373.2 1928.39 -1973.97 -9594.76z"/>
     <path id="71" class="fil45" d="M9663.44 637.99l1962.14 9537.3 9317.09 -1916.84 -1962.14 -9537.3 -9317.09 1916.84zm-101.92 -68.86l9485.47 -1951.48 1997.59 9709.67 -9485.47 1951.46 -1997.59 -9709.65z"/>
     <path id="72" class="fil46" d="M9595.49 592.09l1985.79 9652.21 9429.35 -1939.92 -1985.79 -9652.23 -9429.35 1939.94zm-101.92 -68.88l9597.73 -1974.57 2021.24 9824.59 -9597.73 1974.57 -2021.24 -9824.59z"/>
     <path id="73" class="fil46" d="M9527.56 546.19l2009.42 9767.11 9541.6 -1963.01 -2009.44 -9767.13 -9541.58 1963.03zm-101.93 -68.88l9709.98 -1997.65 2044.89 9939.48 -9709.98 1997.65 -2044.89 -9939.48z"/>
     <path id="74" class="fil47" d="M9459.61 500.26l2033.06 9882.05 9653.83 -1986.12 -2033.05 -9882.05 -9653.85 1986.12zm-101.93 -68.86l9822.23 -2020.76 2068.53 10054.4 -9822.23 2020.76 -2068.53 -10054.4z"/>
     <path id="75" class="fil48" d="M9391.66 454.36l2056.69 9996.94 9766.11 -2009.21 -2056.69 -9996.94 -9766.11 2009.21zm-101.92 -68.86l9934.49 -2043.85 2092.16 10169.3 -9934.49 2043.85 -2092.16 -10169.3z"/>
     <path id="76" class="fil49" d="M9323.71 408.45l2080.34 10111.86 9878.36 -2032.31 -2080.34 -10111.84 -9878.36 2032.29zm-101.92 -68.86l10046.74 -2066.95 2115.79 10284.21 -10046.74 2066.95 -2115.79 -10284.21z"/>
     <path id="77" class="fil50" d="M9255.76 362.55l2103.98 10226.75 9990.61 -2055.4 -2103.98 -10226.75 -9990.61 2055.4zm-101.92 -68.86l10159 -2090.04 2139.44 10399.11 -10159 2090.04 -2139.44 -10399.11z"/>
     <path id="78" class="fil50" d="M9187.81 316.64l2127.63 10341.67 10102.87 -2078.51 -2127.63 -10341.65 -10102.87 2078.49zm-101.92 -68.86l10271.25 -2113.15 2163.08 10514.02 -10271.25 2113.15 -2163.08 -10514.02z"/>
     <path id="79" class="fil50" d="M9119.86 270.74l2151.28 10456.56 10215.12 -2101.59 -2151.28 -10456.56 -10215.12 2101.59zm-101.92 -68.86l10383.5 -2136.23 2186.73 10628.92 -10383.5 2136.23 -2186.73 -10628.92z"/>
     <path id="80" class="fil51" d="M9051.93 224.84l2174.91 10571.48 10327.38 -2124.7 -2174.91 -10571.46 -10327.38 2124.68zm-101.93 -68.86l10495.76 -2159.34 2210.38 10743.85 -10495.76 2159.32 -2210.38 -10743.83z"/>
     <path id="81" class="fil51" d="M8983.98 178.93l2198.53 10686.38 10439.63 -2147.79 -2198.53 -10686.38 -10439.63 2147.79zm-101.92 -68.86l10608.01 -2182.43 2234 10858.75 -10608.01 2182.41 -2234 -10858.73z"/>
     <path id="82" class="fil51" d="M8916.03 133.03l2222.18 10801.27 10551.88 -2170.85 -2222.18 -10801.29 -10551.88 2170.87zm-101.92 -68.88l10720.26 -2205.51 2257.65 10973.66 -10720.28 2205.51 -2257.63 -10973.66z"/>
     <path id="83" class="fil52" d="M8848.08 87.1l2245.83 10916.21 10664.14 -2193.96 -2245.83 -10916.21 -10664.14 2193.96zm-101.92 -68.86l10832.52 -2228.6 2281.28 11088.56 -10832.52 2228.6 -2281.28 -11088.56z"/>
     <path id="84" class="fil53" d="M8780.13 41.2l2269.47 11031.1 10776.39 -2217.05 -2269.47 -11031.1 -10776.39 2217.05zm-101.92 -68.86l10944.77 -2251.71 2304.92 11203.48 -10944.77 2251.71 -2304.92 -11203.48z"/>
     <path id="85" class="fil54" d="M8712.18 -4.71l2293.12 11146.02 10888.64 -2240.16 -2293.1 -11146.02 -10888.66 2240.16zm-101.92 -68.86l11057.02 -2274.8 2328.57 11318.37 -11057.02 2274.8 -2328.57 -11318.37z"/>
     <path id="86" class="fil55" d="M8644.25 -50.61l2316.73 11260.91 11000.92 -2263.24 -2316.75 -11260.91 -11000.9 2263.24zm-101.93 -68.86l11169.28 -2297.88 2352.22 11433.27 -11169.28 2297.9 -2352.22 -11433.29z"/>
     <path id="87" class="fil55" d="M8576.3 -96.52l2340.37 11375.83 11113.15 -2286.35 -2340.37 -11375.83 -11113.15 2286.35zm-101.93 -68.86l11281.55 -2320.99 2375.84 11548.18 -11281.53 2320.99 -2375.86 -11548.18z"/>
     <path id="88" class="fil56" d="M8508.35 -142.42l2364.02 11490.73 11225.41 -2309.44 -2364.02 -11490.73 -11225.41 2309.44zm-101.92 -68.86l11393.79 -2344.08 2399.49 11663.08 -11393.81 2344.1 -2399.47 -11663.1z"/>
     <path id="89" class="fil56" d="M8440.4 -188.32l2387.67 11605.64 11337.66 -2332.54 -2387.67 -11605.64 -11337.66 2332.54zm-101.92 -68.86l11506.04 -2367.18 2423.12 11777.99 -11506.04 2367.18 -2423.12 -11777.99z"/>
     <path id="90" class="fil56" d="M8372.45 -234.23l2411.31 11720.54 11449.91 -2355.63 -2411.31 -11720.54 -11449.91 2355.63zm-101.92 -68.86l11618.29 -2390.27 2446.76 11892.91 -11618.29 2390.27 -2446.76 -11892.91z"/>
     <path id="91" class="fil57" d="M8304.5 -280.13l2434.96 11835.45 11562.17 -2378.72 -2434.94 -11835.47 -11562.19 2378.74zm-101.92 -68.88l11730.55 -2413.36 2470.41 12007.82 -11730.55 2413.36 -2470.41 -12007.82z"/>
     <path id="92" class="fil57" d="M8236.55 -326.04l2458.59 11950.35 11674.44 -2401.8 -2458.59 -11950.37 -11674.44 2401.82zm-101.92 -68.88l11842.82 -2436.44 2494.04 12122.72 -11842.8 2436.44 -2494.06 -12122.72z"/>
     <path id="93" class="fil58" d="M8168.61 -371.96l2482.21 12065.28 11786.69 -2424.91 -2482.23 -12065.28 -11786.67 2424.91zm-101.93 -68.86l11955.07 -2459.55 2517.68 12237.64 -11955.07 2459.55 -2517.68 -12237.64z"/>
     <path id="94" class="fil58" d="M8100.66 -417.87l2505.86 12180.18 11898.93 -2448 -2505.86 -12180.18 -11898.93 2448zm-101.92 -68.86l12067.31 -2482.64 2541.33 12352.53 -12067.33 2482.64 -2541.31 -12352.53z"/>
     <path id="95" class="fil58" d="M8032.71 -463.77l2529.51 12295.09 12011.18 -2471.1 -2529.51 -12295.09 -12011.18 2471.1zm-101.92 -68.86l12179.56 -2505.74 2564.98 12467.45 -12179.58 2505.74 -2564.96 -12467.45z"/>
     <path id="96" class="fil59" d="M7964.76 -509.67l2553.15 12409.99 12123.43 -2494.19 -2553.15 -12409.99 -12123.43 2494.19zm-101.92 -68.86l12291.82 -2528.83 2588.6 12582.34 -12291.82 2528.83 -2588.6 -12582.34z"/>
     <path id="97" class="fil60" d="M7896.81 -555.58l2576.8 12524.91 12235.69 -2517.3 -2576.78 -12524.89 -12235.71 2517.28zm-101.92 -68.86l12404.07 -2551.94 2612.25 12697.26 -12404.07 2551.94 -2612.25 -12697.26z"/>
     <path id="98" class="fil60" d="M7828.86 -601.48l2600.43 12639.8 12347.96 -2540.39 -2600.43 -12639.8 -12347.96 2540.39zm-101.92 -68.86l12516.34 -2575.03 2635.88 12812.16 -12516.32 2575.03 -2635.9 -12812.16z"/>
     <path id="99" class="fil61" d="M7760.93 -647.39l2624.05 12754.72 12460.21 -2563.49 -2624.07 -12754.7 -12460.2 2563.47zm-101.93 -68.86l12628.6 -2598.13 2659.52 12927.09 -12628.6 2598.11 -2659.52 -12927.07z"/>
     <path id="100" class="fil61" d="M7692.98 -693.29l2647.7 12869.61 12572.45 -2586.58 -2647.7 -12869.61 -12572.45 2586.58zm-101.93 -68.86l12740.85 -2621.22 2683.17 13041.99 -12740.85 2621.2 -2683.17 -13041.97z"/>
     <path id="101" class="fil62" d="M7625.03 -739.2l2671.35 12984.53 12684.7 -2609.67 -2671.35 -12984.53 -12684.7 2609.67zm-101.92 -68.88l12853.08 -2644.31 2706.82 13156.9 -12853.1 2644.31 -2706.8 -13156.9z"/>
     <path id="102" class="fil63" d="M7557.08 -785.12l2694.99 13099.44 12796.96 -2632.75 -2694.99 -13099.44 -12796.96 2632.75zm-101.92 -68.86l12965.34 -2667.39 2730.45 13271.8 -12965.34 2667.39 -2730.45 -13271.8z"/>
     <path id="103" class="fil63" d="M7489.13 -831.02l2718.64 13214.36 12909.21 -2655.86 -2718.62 -13214.34 -12909.23 2655.84zm-101.92 -68.86l13077.59 -2690.5 2754.09 13386.71 -13077.59 2690.5 -2754.09 -13386.71z"/>
     <path id="104" class="fil64" d="M7421.18 -876.93l2742.27 13329.26 13021.48 -2678.95 -2742.27 -13329.26 -13021.48 2678.95zm-101.92 -68.86l13189.86 -2713.59 2777.72 13501.61 -13189.84 2713.59 -2777.74 -13501.61z"/>
     <path id="105" class="fil65" d="M7353.23 -922.83l2765.91 13444.15 13133.74 -2702.03 -2765.91 -13444.15 -13133.74 2702.03zm-101.92 -68.86l13302.12 -2736.69 2801.37 13616.52 -13302.12 2736.69 -2801.37 -13616.52z"/>
     <path id="106" class="fil65" d="M7285.3 -968.74l2789.54 13559.07 13245.99 -2725.14 -2789.56 -13559.07 -13245.97 2725.14zm-101.93 -68.86l13414.37 -2759.78 2825.01 13731.42 -13414.37 2759.78 -2825.01 -13731.42z"/>
     <path id="107" class="fil66" d="M7217.35 -1014.64l2813.19 13673.96 13358.22 -2748.23 -2813.19 -13673.96 -13358.22 2748.23zm-101.93 -68.86l13526.62 -2782.87 2848.66 13846.32 -13526.62 2782.89 -2848.66 -13846.34z"/>
     <path id="108" class="fil67" d="M7149.4 -1060.55l2836.84 13788.88 13470.48 -2771.33 -2836.82 -13788.88 -13470.5 2771.33zm-101.92 -68.86l13638.86 -2805.98 2872.31 13961.23 -13638.88 2805.98 -2872.29 -13961.23z"/>
     <path id="109" class="fil68" d="M7081.45 -1106.45l2860.46 13903.77 13582.75 -2794.42 -2860.46 -13903.77 -13582.75 2794.42zm-101.92 -68.86l13751.11 -2829.06 2895.93 14076.15 -13751.11 2829.06 -2895.93 -14076.15z"/>
     <path id="110" class="fil69" d="M7013.5 -1152.36l2884.11 14018.69 13695.01 -2817.51 -2884.11 -14018.71 -13695.01 2817.53zm-101.92 -68.88l13863.39 -2852.15 2919.56 14191.06 -13863.37 2852.15 -2919.58 -14191.06z"/>
     <path id="111" class="fil69" d="M6945.55 -1198.26l2907.76 14133.59 13807.26 -2840.6 -2907.76 -14133.6 -13807.26 2840.62zm-101.92 -68.88l13975.64 -2875.24 2943.21 14305.96 -13975.64 2875.26 -2943.21 -14305.98z"/>
     <path id="112" class="fil70" d="M6877.62 -1244.18l2931.38 14248.52 13919.51 -2863.7 -2931.4 -14248.52 -13919.49 2863.7zm-101.93 -68.86l14087.89 -2898.34 2966.85 14420.87 -14087.89 2898.34 -2966.85 -14420.87z"/>
     <path id="113" class="fil71" d="M6809.67 -1290.09l2955.03 14363.42 14031.75 -2886.79 -2955.03 -14363.42 -14031.75 2886.79zm-101.93 -68.86l14200.15 -2921.43 2990.5 14535.77 -14200.15 2921.45 -2990.5 -14535.79z"/>
     <path id="114" class="fil72" d="M6741.72 -1335.99l2978.68 14478.33 14144 -2909.9 -2978.66 -14478.33 -14144.02 2909.9zm-101.92 -68.86l14312.38 -2944.54 3014.15 14650.69 -14312.4 2944.54 -3014.13 -14650.69z"/>
     <path id="115" class="fil73" d="M6673.77 -1381.9l3002.3 14593.23 14256.27 -2932.98 -3002.3 -14593.23 -14256.27 2932.98zm-101.92 -68.86l14424.65 -2967.62 3037.75 14765.58 -14424.63 2967.62 -3037.77 -14765.58z"/>
     <path id="116" class="fil73" d="M6605.82 -1427.8l3025.95 14708.14 14368.53 -2956.09 -3025.95 -14708.14 -14368.53 2956.09zm-101.92 -68.86l14536.91 -2990.73 3061.4 14880.5 -14536.91 2990.73 -3061.4 -14880.5z"/>
     <path id="117" class="fil74" d="M6537.87 -1473.71l3049.6 14823.04 14480.78 -2979.18 -3049.6 -14823.04 -14480.78 2979.18zm-101.92 -68.86l14649.16 -3013.82 3085.05 14995.39 -14649.16 3013.82 -3085.05 -14995.39z"/>
     <path id="118" class="fil75" d="M6469.92 -1519.61l3073.24 14937.95 14593.03 -3002.28 -3073.24 -14937.95 -14593.03 3002.28zm-101.92 -68.86l14761.42 -3036.92 3108.69 15110.33 -14761.42 3036.91 -3108.69 -15110.31z"/>
     <path id="119" class="fil76" d="M6401.99 -1565.51l3096.87 15052.85 14705.29 -3025.37 -3096.89 -15052.85 -14705.27 3025.37zm-101.93 -68.86l14873.67 -3060.01 3132.34 15225.22 -14873.67 3059.99 -3132.34 -15225.2z"/>
     <path id="120" class="fil77" d="M6334.04 -1611.42l3120.52 15167.77 14817.52 -3048.46 -3120.5 -15167.77 -14817.54 3048.46zm-101.93 -68.88l14985.92 -3083.1 3155.99 15340.14 -14985.92 3083.1 -3155.99 -15340.14z"/>
     <path id="121" class="fil77" d="M6266.09 -1657.34l3144.14 15282.68 14929.8 -3071.55 -3144.14 -15282.68 -14929.8 3071.55zm-101.92 -68.86l15098.18 -3106.19 3179.61 15455.03 -15098.18 3106.19 -3179.61 -15455.03z"/>
     <path id="122" class="fil78" d="M6198.14 -1703.25l3167.79 15397.6 15042.05 -3094.65 -3167.79 -15397.58 -15042.05 3094.63zm-101.92 -68.86l15210.43 -3129.29 3203.24 15569.95 -15210.43 3129.29 -3203.24 -15569.95z"/>
     <path id="123" class="fil79" d="M6130.19 -1749.15l3191.44 15512.49 15154.3 -3117.74 -3191.44 -15512.49 -15154.3 3117.74zm-101.92 -68.86l15322.68 -3152.38 3226.89 15684.85 -15322.68 3152.38 -3226.89 -15684.85z"/>
     <path id="124" class="fil80" d="M6062.24 -1795.06l3215.08 15627.41 15266.56 -3140.85 -3215.08 -15627.39 -15266.56 3140.83zm-101.92 -68.86l15434.94 -3175.49 3250.53 15799.76 -15434.94 3175.49 -3250.53 -15799.76z"/>
     <path id="125" class="fil81" d="M5994.31 -1840.96l3238.71 15742.3 15378.81 -3163.93 -3238.71 -15742.3 -15378.81 3163.93zm-101.93 -68.86l15547.19 -3198.57 3274.18 15914.66 -15547.19 3198.57 -3274.18 -15914.66z"/>
     <path id="126" class="fil81" d="M5926.36 -1886.86l3262.34 15857.22 15491.08 -3187.04 -3262.36 -15857.2 -15491.06 3187.02zm-101.93 -68.86l15659.44 -3221.68 3297.83 16029.57 -15659.44 3221.68 -3297.83 -16029.57z"/>
     <path id="127" class="fil82" d="M5858.41 -1932.77l3285.99 15972.12 15603.32 -3210.13 -3285.99 -15972.12 -15603.32 3210.13zm-101.92 -68.86l15771.7 -3244.77 3321.45 16144.49 -15771.7 3244.75 -3321.45 -16144.47z"/>
     <path id="128" class="fil83" d="M5790.46 -1978.67l3309.63 16087.01 15715.57 -3233.21 -3309.63 -16087.01 -15715.57 3233.21zm-101.92 -68.86l15883.95 -3267.87 3345.08 16259.4 -15883.95 3267.85 -3345.08 -16259.38z"/>
     <path id="129" class="fil83" d="M5722.51 -2024.58l3333.28 16201.93 15827.82 -3256.3 -3333.28 -16201.95 -15827.82 3256.32zm-101.92 -68.88l15996.21 -3290.94 3368.73 16374.3 -15996.21 3290.94 -3368.73 -16374.3z"/>
     <path id="130" class="fil84" d="M5654.56 -2070.5l3356.92 16316.84 15940.08 -3279.39 -3356.92 -16316.84 -15940.08 3279.39zm-101.92 -68.86l16108.46 -3314.03 3392.38 16489.2 -16108.46 3314.05 -3392.38 -16489.22z"/>
     <path id="131" class="fil85" d="M5586.61 -2116.41l3380.57 16431.76 16052.33 -3302.5 -3380.55 -16431.76 -16052.35 3302.5zm-101.92 -68.86l16220.71 -3337.14 3416.02 16604.11 -16220.71 3337.14 -3416.02 -16604.11z"/>
     <path id="132" class="fil85" d="M5518.68 -2162.31l3404.18 16546.65 16164.61 -3325.58 -3404.2 -16546.65 -16164.59 3325.58zm-101.93 -68.86l16332.97 -3360.22 3439.67 16719.01 -16332.97 3360.24 -3439.67 -16719.03z"/>
     <path id="133" class="fil86" d="M5450.73 -2208.21l3427.83 16661.57 16276.84 -3348.69 -3427.83 -16661.57 -16276.84 3348.69zm-101.93 -68.86l16445.24 -3383.33 3463.3 16833.92 -16445.22 3383.33 -3463.31 -16833.92z"/>
     <path id="134" class="fil86" d="M5382.78 -2254.12l3451.47 16776.46 16389.09 -3371.78 -3451.47 -16776.46 -16389.09 3371.78zm-101.92 -68.86l16557.47 -3406.42 3486.94 16948.82 -16557.49 3406.44 -3486.92 -16948.84z"/>
     <path id="135" class="fil87" d="M5314.83 -2300.02l3475.12 16891.38 16501.35 -3394.88 -3475.12 -16891.38 -16501.35 3394.88zm-101.92 -68.86l16669.73 -3429.52 3510.57 17063.73 -16669.73 3429.52 -3510.57 -17063.73z"/>
     <path id="136" class="fil88" d="M5246.88 -2345.93l3498.77 17006.28 16613.6 -3417.97 -3498.77 -17006.28 -16613.6 3417.97zm-101.92 -68.86l16781.98 -3452.61 3534.22 17178.63 -16781.98 3452.63 -3534.22 -17178.65z"/>
     <path id="137" class="fil88" d="M5178.93 -2391.83l3522.41 17121.19 16725.85 -3441.08 -3522.39 -17121.19 -16725.87 3441.08zm-101.92 -68.86l16894.23 -3475.72 3557.86 17293.56 -16894.23 3475.7 -3557.86 -17293.55z"/>
     <path id="138" class="fil88" d="M5110.98 -2437.74l3546.04 17236.09 16838.13 -3464.14 -3546.04 -17236.11 -16838.13 3464.16zm-101.92 -68.88l17006.51 -3498.78 3581.49 17408.46 -17006.49 3498.78 -3581.51 -17408.46z"/>
     <path id="139" class="fil89" d="M5043.04 -2483.64l3569.67 17351 16950.38 -3487.25 -3569.69 -17351.02 -16950.36 3487.27zm-101.93 -68.88l17118.76 -3521.89 3605.14 17523.38 -17118.76 3521.89 -3605.14 -17523.38z"/>
     <path id="140" class="fil89" d="M4975.09 -2529.57l3593.31 17465.92 17062.62 -3510.34 -3593.31 -17465.92 -17062.62 3510.34zm-101.92 -68.86l17231 -3544.98 3628.78 17638.27 -17231.02 3544.98 -3628.76 -17638.27z"/>
     <path id="141" class="fil90" d="M4907.14 -2575.47l3616.96 17580.83 17174.87 -3533.44 -3616.96 -17580.83 -17174.87 3533.44zm-101.92 -68.86l17343.25 -3568.09 3652.41 17753.19 -17343.25 3568.09 -3652.41 -17753.19z"/>
     <path id="142" class="fil90" d="M4839.19 -2621.37l3640.61 17695.73 17287.12 -3556.53 -3640.61 -17695.73 -17287.12 3556.53zm-101.92 -68.86l17455.5 -3591.17 3676.06 17868.08 -17455.5 3591.17 -3676.06 -17868.08z"/>
     <path id="143" class="fil90" d="M4771.24 -2667.28l3664.25 17810.65 17399.38 -3579.64 -3664.23 -17810.63 -17399.4 3579.62zm-101.92 -68.86l17567.76 -3614.28 3699.7 17983 -17567.76 3614.28 -3699.7 -17983z"/>
     <path id="144" class="fil91" d="M4703.29 -2713.18l3687.88 17925.54 17511.65 -3602.73 -3687.88 -17925.54 -17511.65 3602.73zm-101.92 -68.86l17680.03 -3637.37 3723.33 18097.89 -17680.01 3637.37 -3723.35 -18097.89z"/>
     <path id="145" class="fil91" d="M4635.36 -2759.09l3711.51 18040.46 17623.9 -3625.83 -3711.53 -18040.44 -17623.88 3625.81zm-101.93 -68.86l17792.28 -3660.47 3746.98 18212.81 -17792.28 3660.47 -3746.98 -18212.81z"/>
     <path id="146" class="fil92" d="M4567.41 -2804.99l3735.15 18155.35 17736.14 -3648.92 -3735.15 -18155.35 -17736.14 3648.92zm-101.93 -68.86l17904.54 -3683.56 3770.62 18327.73 -17904.54 3683.54 -3770.62 -18327.71z"/>
     <path id="147" class="fil93" d="M4499.46 -2850.9l3758.8 18270.27 17848.39 -3672.03 -3758.8 -18270.25 -17848.39 3672.01zm-101.92 -68.86l18016.77 -3706.67 3794.27 18442.64 -18016.79 3706.65 -3794.25 -18442.62z"/>
     <path id="148" class="fil94" d="M4431.51 -2896.8l3782.45 18385.16 17960.64 -3695.09 -3782.43 -18385.18 -17960.66 3695.11zm-101.92 -68.88l18129.03 -3729.73 3817.9 18557.54 -18129.03 3729.73 -3817.9 -18557.54z"/>
     <path id="149" class="fil95" d="M4363.56 -2942.72l3806.07 18500.08 18072.92 -3718.18 -3806.07 -18500.08 -18072.92 3718.18zm-101.92 -68.86l18241.28 -3752.84 3841.54 18672.45 -18241.28 3752.84 -3841.54 -18672.45z"/>
     <path id="150" class="fil95" d="M4295.61 -2988.63l3829.72 18614.99 18185.17 -3741.29 -3829.72 -18614.99 -18185.17 3741.29zm-101.92 -68.86l18353.55 -3775.93 3865.17 18787.35 -18353.53 3775.93 -3865.19 -18787.35z"/>
     <path id="151" class="fil95" d="M4227.66 -3034.53l3853.37 18729.89 18297.42 -3764.37 -3853.37 -18729.89 -18297.42 3764.37zm-101.92 -68.86l18465.81 -3799.03 3888.82 18902.26 -18465.81 3799.03 -3888.82 -18902.26z"/>
     <path id="152" class="fil96" d="M4159.73 -3080.44l3876.99 18844.81 18409.68 -3787.48 -3877.01 -18844.81 -18409.66 3787.48zm-101.93 -68.86l18578.06 -3822.12 3912.46 19017.16 -18578.06 3822.12 -3912.46 -19017.16z"/>
     <path id="153" class="fil96" d="M4091.78 -3126.34l3900.64 18959.7 18521.91 -3810.57 -3900.64 -18959.7 -18521.91 3810.57zm-101.92 -68.86l18690.29 -3845.21 3936.11 19132.06 -18690.31 3845.23 -3936.09 -19132.08z"/>
     <path id="154" class="fil96" d="M4023.83 -3172.25l3924.29 19074.62 18634.17 -3833.67 -3924.27 -19074.62 -18634.19 3833.67zm-101.92 -68.86l18802.55 -3868.32 3959.76 19246.97 -18802.57 3868.32 -3959.74 -19246.97z"/>
     <path id="155" class="fil97" d="M3955.88 -3218.15l3947.92 19189.51 18746.44 -3856.76 -3947.92 -19189.51 -18746.44 3856.76zm-101.92 -68.86l18914.82 -3891.4 3983.37 19361.87 -18914.8 3891.42 -3983.39 -19361.89z"/>
     <path id="156" class="fil98" d="M3887.93 -3264.06l3971.56 19304.43 18858.69 -3879.87 -3971.56 -19304.43 -18858.69 3879.87zm-101.92 -68.86l19027.07 -3914.51 4007.01 19476.8 -19027.07 3914.49 -4007.01 -19476.78z"/>
     <path id="157" class="fil99" d="M3819.98 -3309.96l3995.21 19419.33 18970.95 -3902.94 -3995.21 -19419.34 -18970.95 3902.96zm-101.92 -68.88l19139.33 -3937.58 4030.66 19591.7 -19139.33 3937.6 -4030.66 -19591.72z"/>
     <path id="158" class="fil100" d="M3752.05 -3355.86l4018.84 19534.24 19083.2 -3926.04 -4018.85 -19534.26 -19083.18 3926.06zm-101.93 -68.88l19251.58 -3960.68 4054.31 19706.61 -19251.58 3960.68 -4054.31 -19706.61z"/>
     <path id="159" class="fil100" d="M3684.1 -3401.79l4042.48 19649.16 19195.43 -3949.13 -4042.48 -19649.16 -19195.43 3949.13zm-101.93 -68.86l19363.83 -3983.77 4077.95 19821.51 -19363.83 3983.77 -4077.95 -19821.51z"/>
     <path id="160" class="fil101" d="M3616.15 -3447.69l4066.13 19764.07 19307.69 -3972.24 -4066.11 -19764.07 -19307.71 3972.24zm-101.92 -68.86l19476.07 -4006.88 4101.6 19936.42 -19476.09 4006.88 -4101.58 -19936.42z"/>
     <path id="161" class="fil102" d="M3548.2 -3493.6l4089.76 19878.97 19419.96 -3995.32 -4089.76 -19878.97 -19419.96 3995.32zm-101.92 -68.86l19588.34 -4029.96 4125.21 20051.32 -19588.32 4029.96 -4125.23 -20051.32z"/>
     <path id="162" class="fil103" d="M3480.25 -3539.5l4113.4 19993.88 19532.22 -4018.43 -4113.4 -19993.88 -19532.22 4018.43zm-101.92 -68.86l19700.6 -4053.07 4148.85 20166.24 -19700.6 4053.07 -4148.85 -20166.24z"/>
     <path id="163" class="fil104" d="M3412.3 -3585.41l4137.05 20108.78 19644.47 -4041.52 -4137.05 -20108.78 -19644.47 4041.52zm-101.92 -68.86l19812.85 -4076.16 4172.5 20281.13 -19812.85 4076.16 -4172.5 -20281.13z"/>
     <path id="164" class="fil104" d="M3344.35 -3631.31l4160.7 20223.69 19756.72 -4064.62 -4160.7 -20223.69 -19756.72 4064.62zm-101.92 -68.86l19925.1 -4099.26 4196.15 20396.05 -19925.1 4099.26 -4196.15 -20396.05z"/>
     <path id="165" class="fil105" d="M3276.42 -3677.21l4184.32 20338.59 19868.98 -4087.71 -4184.34 -20338.59 -19868.96 4087.71zm-101.93 -68.86l20037.36 -4122.35 4219.79 20510.96 -20037.36 4122.33 -4219.79 -20510.94z"/>
     <path id="166" class="fil105" d="M3208.47 -3723.12l4207.97 20453.51 19981.21 -4110.82 -4207.95 -20453.49 -19981.23 4110.8zm-101.92 -68.86l20149.59 -4145.46 4243.44 20625.88 -20149.61 4145.44 -4243.42 -20625.86z"/>
     <path id="167" class="fil105" d="M3140.52 -3769.02l4231.6 20568.4 20093.48 -4133.89 -4231.6 -20568.42 -20093.48 4133.91zm-101.92 -68.88l20261.86 -4168.53 4267.07 20740.77 -20261.86 4168.53 -4267.07 -20740.77z"/>
     <path id="168" class="fil106" d="M3072.57 -3814.95l4255.24 20683.34 20205.74 -4156.99 -4255.24 -20683.32 -20205.74 4156.97zm-101.92 -68.86l20374.12 -4191.63 4290.69 20855.69 -20374.12 4191.63 -4290.69 -20855.69z"/>
     <path id="169" class="fil107" d="M3004.62 -3860.85l4278.89 20798.23 20317.99 -4180.08 -4278.89 -20798.23 -20317.99 4180.08zm-101.92 -68.86l20486.37 -4214.72 4314.34 20970.59 -20486.37 4214.72 -4314.34 -20970.59z"/>
     <path id="170" class="fil108" d="M2936.67 -3906.76l4302.54 20913.15 20430.24 -4203.19 -4302.54 -20913.13 -20430.24 4203.17zm-101.92 -68.86l20598.63 -4237.83 4337.99 21085.5 -20598.63 4237.83 -4337.99 -21085.5z"/>
     <path id="171" class="fil108" d="M2868.74 -3952.66l4326.16 21028.04 20542.5 -4226.27 -4326.16 -21028.04 -20542.5 4226.27zm-101.93 -68.86l20710.88 -4260.91 4361.63 21200.4 -20710.88 4260.91 -4361.63 -21200.4z"/>
     <path id="172" class="fil108" d="M2800.79 -3998.56l4349.79 21142.94 20654.75 -4249.36 -4349.79 -21142.94 -20654.75 4249.36zm-101.93 -68.86l20823.13 -4284.02 4385.28 21315.31 -20823.13 4284.02 -4385.28 -21315.31z"/>
     <path id="173" class="fil109" d="M2732.84 -4044.47l4373.44 21257.85 20767.01 -4272.47 -4373.44 -21257.85 -20767.01 4272.47zm-101.92 -68.86l20935.39 -4307.11 4408.91 21430.21 -20935.39 4307.11 -4408.91 -21430.21z"/>
     <path id="174" class="fil110" d="M2664.89 -4090.37l4397.08 21372.75 20879.26 -4295.55 -4397.08 -21372.75 -20879.26 4295.55zm-101.92 -68.86l21047.64 -4330.19 4432.53 21545.1 -21047.64 4330.21 -4432.53 -21545.12z"/>
     <path id="175" class="fil110" d="M2596.94 -4136.28l4420.73 21487.67 20991.51 -4318.66 -4420.73 -21487.67 -20991.51 4318.66zm-101.92 -68.86l21159.89 -4353.3 4456.18 21660.04 -21159.89 4353.28 -4456.18 -21660.02z"/>
     <path id="176" class="fil111" d="M2528.99 -4182.18l4444.38 21602.56 21103.77 -4341.73 -4444.38 -21602.58 -21103.77 4341.75zm-101.92 -68.88l21272.15 -4376.37 4479.83 21774.94 -21272.15 4376.39 -4479.83 -21774.95z"/>
     <path id="177" class="fil111" d="M2461.04 -4228.09l4468.02 21717.48 21216.02 -4364.84 -4468 -21717.5 -21216.04 4364.85zm-101.92 -68.88l21384.4 -4399.48 4503.47 21889.85 -21384.4 4399.48 -4503.47 -21889.85z"/>
     <path id="178" class="fil112" d="M2393.11 -4274.01l4491.63 21832.39 21328.29 -4387.92 -4491.65 -21832.39 -21328.27 4387.92zm-101.93 -68.86l21496.67 -4422.56 4527.1 22004.75 -21496.65 4422.58 -4527.12 -22004.77z"/>
     <path id="179" class="fil112" d="M2325.16 -4319.91l4515.28 21947.31 21440.53 -4411.03 -4515.28 -21947.31 -21440.53 4411.03zm-101.93 -68.86l21608.93 -4445.67 4550.75 22119.66 -21608.93 4445.67 -4550.75 -22119.66z"/>
     <path id="180" class="fil113" d="M2257.21 -4365.82l4538.92 22062.2 21552.78 -4434.12 -4538.92 -22062.2 -21552.78 4434.12zm-101.92 -68.86l21721.16 -4468.76 4574.39 22234.56 -21721.18 4468.78 -4574.38 -22234.58z"/>
     <path id="181" class="fil114" d="M2189.26 -4411.72l4562.57 22177.12 21665.03 -4457.22 -4562.57 -22177.12 -21665.03 4457.22zm-101.92 -68.86l21833.42 -4491.86 4598.02 22349.47 -21833.42 4491.86 -4598.02 -22349.47z"/>
     <path id="182" class="fil115" d="M2121.3 -4457.63l4586.22 22292.02 21777.29 -4480.31 -4586.22 -22292.02 -21777.29 4480.31zm-101.92 -68.86l21945.67 -4514.95 4621.67 22464.37 -21945.67 4514.95 -4621.67 -22464.37z"/>
     <path id="183" class="fil115" d="M2053.35 -4503.53l4609.86 22406.93 21889.54 -4503.42 -4609.85 -22406.93 -21889.56 4503.42zm-101.92 -68.86l22057.92 -4538.06 4645.32 22579.29 -22057.92 4538.06 -4645.32 -22579.29z"/>
     <path id="184" class="fil116" d="M1985.42 -4549.44l4633.47 22521.83 22001.82 -4526.5 -4633.49 -22521.83 -22001.8 4526.5zm-101.93 -68.86l22170.2 -4561.14 4668.94 22694.2 -22170.18 4561.12 -4668.96 -22694.18z"/>
     <path id="185" class="fil117" d="M1917.47 -4595.34l4657.12 22636.74 22114.05 -4549.59 -4657.12 -22636.76 -22114.05 4549.61zm-101.93 -68.88l22282.45 -4584.23 4692.59 22809.12 -22282.45 4584.23 -4692.59 -22809.12z"/>
     <path id="186" class="fil118" d="M1849.52 -4641.25l4680.77 22751.64 22226.3 -4572.68 -4680.77 -22751.66 -22226.3 4572.7zm-101.92 -68.88l22394.68 -4607.32 4716.24 22924.01 -22394.7 4607.32 -4716.22 -22924.01z"/>
     <path id="187" class="fil118" d="M1781.57 -4687.17l4704.41 22866.57 22338.56 -4595.78 -4704.41 -22866.55 -22338.56 4595.77zm-101.92 -68.86l22506.94 -4630.43 4739.86 23038.93 -22506.94 4630.43 -4739.86 -23038.93z"/>
     <path id="188" class="fil118" d="M1713.62 -4733.07l4728.06 22981.47 22450.81 -4618.87 -4728.04 -22981.47 -22450.83 4618.87zm-101.92 -68.86l22619.19 -4653.51 4763.51 23153.82 -22619.19 4653.51 -4763.51 -23153.82z"/>
     <path id="189" class="fil119" d="M1645.67 -4778.98l4751.69 23096.38 22563.08 -4641.98 -4751.69 -23096.37 -22563.08 4641.96zm-101.92 -68.86l22731.44 -4676.62 4787.16 23268.74 -22731.44 4676.62 -4787.16 -23268.74z"/>
     <path id="190" class="fil120" d="M1577.72 -4824.88l4775.33 23211.28 22675.34 -4665.07 -4775.33 -23211.28 -22675.34 4665.07zm-101.92 -68.86l22843.72 -4699.71 4810.78 23383.63 -22843.7 4699.71 -4810.8 -23383.63z"/>
     <path id="191" class="fil121" d="M1509.79 -4870.79l4798.96 23326.2 22787.59 -4688.17 -4798.98 -23326.18 -22787.57 4688.15zm-101.93 -68.86l22955.97 -4722.81 4834.43 23498.55 -22955.97 4722.81 -4834.43 -23498.55z"/>
     <path id="192" class="fil122" d="M1441.84 -4916.69l4822.61 23441.09 22899.83 -4711.26 -4822.61 -23441.09 -22899.83 4711.26zm-101.93 -68.86l23068.23 -4745.9 4858.08 23613.45 -23068.23 4745.9 -4858.08 -23613.45z"/>
     <path id="193" class="fil122" d="M1373.89 -4962.6l4846.25 23556.01 23012.08 -4734.37 -4846.25 -23555.99 -23012.08 4734.35zm-101.92 -68.86l23180.46 -4769.01 4881.72 23728.38 -23180.48 4768.99 -4881.7 -23728.36z"/>
     <path id="194" class="fil123" d="M1305.94 -5008.5l4869.9 23670.9 23124.33 -4757.45 -4869.88 -23670.9 -23124.35 4757.45zm-101.92 -68.86l23292.71 -4792.09 4905.35 23843.28 -23292.71 4792.07 -4905.35 -23843.26z"/>
     <path id="195" class="fil124" d="M1237.99 -5054.4l4893.53 23785.8 23236.61 -4780.52 -4893.53 -23785.82 -23236.61 4780.54zm-101.92 -68.88l23404.99 -4815.18 4928.98 23958.19 -23404.97 4815.18 -4929 -23958.19z"/>
     <path id="196" class="fil125" d="M1170.04 -5100.33l4917.17 23900.73 23348.86 -4803.63 -4917.17 -23900.73 -23348.86 4803.63zm-101.92 -68.86l23517.24 -4838.27 4952.62 24073.09 -23517.22 4838.27 -4952.64 -24073.09z"/>
     <path id="197" class="fil126" d="M1102.11 -5146.23l4940.8 24015.63 23461.11 -4826.71 -4940.82 -24015.63 -23461.09 4826.71zm-101.93 -68.86l23629.49 -4861.36 4976.27 24187.98 -23629.49 4861.37 -4976.27 -24188z"/>
     <path id="198" class="fil126" d="M1034.16 -5192.14l4964.45 24130.55 23573.37 -4849.82 -4964.47 -24130.55 -23573.35 4849.82zm-101.93 -68.86l23741.75 -4884.46 4999.92 24302.9 -23741.75 4884.46 -4999.92 -24302.9z"/>
     <path id="199" class="fil127" d="M966.21 -5238.04l4988.09 24245.44 23685.6 -4872.91 -4988.09 -24245.44 -23685.6 4872.91zm-101.92 -68.86l23853.98 -4907.55 5023.56 24417.8 -23854 4907.57 -5023.54 -24417.81z"/>
     <path id="200" class="fil128" d="M898.26 -5283.95l5011.74 24360.36 23797.85 -4896.02 -5011.72 -24360.36 -23797.87 4896.02zm-101.92 -68.86l23966.24 -4930.66 5047.19 24532.71 -23966.24 4930.66 -5047.19 -24532.71z"/>
     <path id="201" class="fil128" d="M830.31 -5329.85l5035.37 24475.25 23910.13 -4919.1 -5035.37 -24475.25 -23910.13 4919.1zm-101.92 -68.86l24078.51 -4953.74 5070.82 24647.61 -24078.49 4953.76 -5070.84 -24647.63z"/>
     <path id="202" class="fil129" d="M762.36 -5375.75l5059.01 24590.17 24022.38 -4942.21 -5059.01 -24590.17 -24022.38 4942.21zm-101.92 -68.86l24190.76 -4976.85 5094.46 24762.52 -24190.76 4976.85 -5094.46 -24762.52z"/>
     <path id="203" class="fil130" d="M694.41 -5421.66l5082.66 24705.06 24134.63 -4965.3 -5082.66 -24705.06 -24134.63 4965.3zm-101.92 -68.86l24303.02 -4999.94 5118.11 24877.44 -24303.02 4999.94 -5118.11 -24877.44z"/>
     <path id="204" class="fil130" d="M626.48 -5467.56l5106.29 24819.98 24246.89 -4988.38 -5106.31 -24820 -24246.87 4988.4zm-101.93 -68.88l24415.27 -5023.02 5141.76 24992.35 -24415.27 5023.02 -5141.76 -24992.35z"/>
     <path id="205" class="fil131" d="M558.53 -5513.47l5129.93 24934.88 24359.12 -5011.47 -5129.93 -24934.9 -24359.12 5011.49zm-101.93 -68.88l24527.52 -5046.11 5165.4 25107.25 -24527.52 5046.11 -5165.4 -25107.25z"/>
     <path id="206" class="fil131" d="M490.58 -5559.39l5153.58 25049.81 24471.38 -5034.58 -5153.56 -25049.81 -24471.4 5034.58zm-101.92 -68.86l24639.76 -5069.22 5189.05 25222.16 -24639.78 5069.22 -5189.03 -25222.16z"/>
     <path id="207" class="fil132" d="M422.63 -5605.3l5177.21 25164.71 24583.65 -5057.66 -5177.21 -25164.71 -24583.65 5057.66zm-101.92 -68.86l24752.03 -5092.3 5212.66 25337.06 -24752.01 5092.3 -5212.68 -25337.06z"/>
     <path id="208" class="fil133" d="M354.68 -5651.2l5200.86 25279.62 24695.9 -5080.77 -5200.86 -25279.62 -24695.9 5080.77zm-101.92 -68.86l24864.28 -5115.41 5236.31 25451.98 -24864.28 5115.41 -5236.31 -25451.98z"/>
     <path id="209" class="fil133" d="M286.73 -5697.11l5224.5 25394.52 24808.16 -5103.86 -5224.5 -25394.52 -24808.16 5103.86zm-101.92 -68.86l24976.54 -5138.5 5259.95 25566.87 -24976.54 5138.5 -5259.95 -25566.87z"/>
     <path id="210" class="fil134" d="M218.78 -5743.01l5248.15 25509.43 24920.41 -5126.96 -5248.15 -25509.41 -24920.41 5126.95zm-101.92 -68.86l25088.79 -5161.6 5283.6 25681.79 -25088.79 5161.6 -5283.6 -25681.79z"/>
     <path id="211" class="fil134" d="M150.85 -5788.91l5271.78 25624.33 25032.66 -5150.05 -5271.78 -25624.33 -25032.66 5150.05zm-101.93 -68.86l25201.04 -5184.69 5307.25 25796.68 -25201.04 5184.69 -5307.25 -25796.68z"/>
     <path id="212" class="fil135" d="M82.9 -5834.82l5295.4 25739.25 25144.92 -5173.16 -5295.4 -25739.23 -25144.92 5173.14zm-101.92 -68.86l25313.28 -5207.8 5330.89 25911.62 -25313.3 5207.78 -5330.87 -25911.6z"/>
     <path id="213" class="fil136" d="M14.95 -5880.72l5319.05 25854.14 25257.17 -5196.25 -5319.05 -25854.14 -25257.17 5196.25zm-101.92 -68.86l25425.55 -5230.89 5354.5 26026.51 -25425.53 5230.87 -5354.52 -26026.49z"/>
     <path id="214" class="fil136" d="M-53 -5926.63l5342.7 25969.06 25369.43 -5219.33 -5342.7 -25969.06 -25369.43 5219.33zm-101.92 -68.88l25537.81 -5253.97 5378.15 26141.43 -25537.81 5253.97 -5378.15 -26141.43z"/>
     <path id="215" class="fil136" d="M-120.95 -5972.55l5366.34 26083.97 25481.68 -5242.42 -5366.34 -26083.97 -25481.68 5242.42zm-101.92 -68.86l25650.06 -5277.06 5401.79 26256.33 -25650.06 5277.06 -5401.79 -26256.33z"/>
     <path id="216" class="fil137" d="M-188.9 -6018.46l5389.99 26198.89 25593.93 -5265.53 -5389.99 -26198.87 -25593.93 5265.51zm-101.92 -68.86l25762.31 -5300.17 5425.44 26371.24 -25762.31 5300.17 -5425.44 -26371.24z"/>
     <path id="217" class="fil137" d="M-256.83 -6064.36l5413.62 26313.78 25706.19 -5288.61 -5413.62 -26313.78 -25706.19 5288.61zm-101.93 -68.86l25874.57 -5323.25 5449.09 26486.14 -25874.57 5323.25 -5449.09 -26486.14z"/>
     <path id="218" class="fil138" d="M-324.78 -6110.26l5437.24 26428.68 25818.44 -5311.7 -5437.24 -26428.68 -25818.44 5311.7zm-101.93 -68.86l25986.84 -5346.36 5472.71 26601.05 -25986.82 5346.36 -5472.73 -26601.05z"/>
     <path id="219" class="fil139" d="M-392.73 -6156.17l5460.89 26543.59 25930.69 -5334.81 -5460.89 -26543.59 -25930.69 5334.81zm-101.92 -68.86l26099.07 -5369.45 5496.36 26715.95 -26099.09 5369.45 -5496.34 -26715.95z"/>
     <path id="220" class="fil140" d="M-460.68 -6202.07l5484.54 26658.49 26042.95 -5357.89 -5484.54 -26658.49 -26042.95 5357.89zm-101.92 -68.86l26211.33 -5392.54 5519.99 26830.84 -26211.33 5392.55 -5519.99 -26830.86z"/>
     <path id="221" class="fil141" d="M-528.63 -6247.98l5508.18 26773.41 26155.2 -5381 -5508.18 -26773.41 -26155.2 5381zm-101.92 -68.86l26323.58 -5415.64 5543.63 26945.76 -26323.58 5415.64 -5543.63 -26945.76z"/>
     <path id="222" class="fil141" d="M-596.58 -6293.88l5531.83 26888.3 26267.45 -5404.09 -5531.83 -26888.3 -26267.45 5404.09zm-101.92 -68.86l26435.84 -5438.73 5567.28 27060.68 -26435.84 5438.73 -5567.28 -27060.68z"/>
     <path id="223" class="fil141" d="M-664.53 -6339.79l5555.48 27003.22 26379.71 -5427.18 -5555.46 -27003.24 -26379.73 5427.19zm-101.92 -68.88l26548.09 -5461.82 5590.93 27175.59 -26548.09 5461.82 -5590.93 -27175.59z"/>
     <path id="224" class="fil142" d="M-732.46 -6385.69l5579.08 27118.11 26491.98 -5450.26 -5579.1 -27118.13 -26491.96 5450.28zm-101.93 -68.88l26660.36 -5484.9 5614.55 27290.49 -26660.34 5484.92 -5614.57 -27290.51z"/>
     <path id="225" class="fil142" d="M-800.41 -6431.61l5602.73 27233.05 26604.22 -5473.37 -5602.73 -27233.05 -26604.22 5473.37zm-101.92 -68.86l26772.6 -5508.01 5638.2 27405.4 -26772.62 5508.01 -5638.18 -27405.4z"/>
     <path id="226" class="fil143" d="M-868.37 -6477.52l5626.38 27347.94 26716.47 -5496.46 -5626.38 -27347.94 -26716.47 5496.46zm-101.92 -68.86l26884.85 -5531.1 5661.85 27520.3 -26884.87 5531.12 -5661.83 -27520.32z"/>
     <path id="227" class="fil143" d="M-936.32 -6523.42l5650.02 27462.86 26828.72 -5519.56 -5650.02 -27462.86 -26828.72 5519.56zm-101.92 -68.86l26997.1 -5554.2 5685.47 27635.21 -26997.1 5554.2 -5685.47 -27635.21z"/>
     <path id="228" class="fil143" d="M-1004.27 -6569.33l5673.67 27577.76 26940.98 -5542.65 -5673.65 -27577.76 -26941 5542.65zm-101.92 -68.86l27109.36 -5577.29 5709.12 27750.11 -27109.36 5577.29 -5709.12 -27750.11z"/>
     <path id="229" class="fil144" d="M-1072.22 -6615.23l5697.3 27692.67 27053.25 -5565.76 -5697.3 -27692.67 -27053.25 5565.76zm-101.92 -68.86l27221.61 -5600.4 5732.77 27865.02 -27221.61 5600.4 -5732.77 -27865.02z"/>
     <path id="230" class="fil145" d="M-1140.15 -6661.14l5720.93 27807.57 27165.5 -5588.84 -5720.94 -27807.57 -27165.48 5588.84zm-101.93 -68.86l27333.88 -5623.48 5756.4 27979.92 -27333.86 5623.48 -5756.41 -27979.92z"/>
     <path id="231" class="fil145" d="M-1208.1 -6707.04l5744.57 27922.48 27277.74 -5611.95 -5744.57 -27922.48 -27277.74 5611.95zm-101.93 -68.86l27446.14 -5646.59 5780.04 28094.86 -27446.14 5646.57 -5780.04 -28094.84z"/>
     <path id="232" class="fil146" d="M-1276.05 -6752.95l5768.22 28037.38 27389.99 -5635.04 -5768.22 -28037.38 -27389.99 5635.04zm-101.92 -68.86l27558.37 -5669.68 5803.69 28209.75 -27558.39 5669.66 -5803.67 -28209.73z"/>
     <path id="233" class="fil147" d="M-1344 -6798.85l5791.86 28152.29 27502.24 -5658.12 -5791.86 -28152.29 -27502.24 5658.12zm-101.92 -68.88l27670.63 -5692.77 5827.32 28324.67 -27670.63 5692.77 -5827.32 -28324.67z"/>
     <path id="234" class="fil148" d="M-1411.95 -6844.77l5815.51 28267.21 27614.5 -5681.21 -5815.49 -28267.21 -27614.52 5681.21zm-101.92 -68.86l27782.88 -5715.85 5850.96 28439.56 -27782.88 5715.85 -5850.96 -28439.56z"/>
     <path id="235" class="fil149" d="M-1479.9 -6890.68l5839.14 28382.12 27726.77 -5704.32 -5839.14 -28382.11 -27726.77 5704.3zm-101.92 -68.86l27895.13 -5738.96 5874.61 28554.48 -27895.13 5738.96 -5874.61 -28554.48z"/>
     <path id="236" class="fil149" d="M-1547.85 -6936.58l5862.79 28497.02 27839.03 -5727.41 -5862.79 -28497.02 -27839.03 5727.41zm-101.92 -68.86l28007.41 -5762.05 5898.24 28669.37 -28007.39 5762.05 -5898.26 -28669.37z"/>
     <path id="237" class="fil150" d="M-1615.78 -6982.49l5886.41 28611.94 27951.28 -5750.51 -5886.43 -28611.92 -27951.26 5750.49zm-101.93 -68.86l28119.66 -5785.15 5921.88 28784.29 -28119.66 5785.15 -5921.88 -28784.29z"/>
     <path id="238" class="fil150" d="M-1683.73 -7028.39l5910.06 28726.83 28063.51 -5773.6 -5910.06 -28726.83 -28063.51 5773.6zm-101.92 -68.86l28231.89 -5808.24 5945.53 28899.19 -28231.91 5808.24 -5945.51 -28899.19z"/>
     <path id="239" class="fil150" d="M-1751.68 -7074.3l5933.71 28841.73 28175.77 -5796.69 -5933.71 -28841.73 -28175.77 5796.69zm-101.92 -68.86l28344.15 -5831.35 5969.18 29014.1 -28344.17 5831.35 -5969.16 -29014.1z"/>
     <path id="240" class="fil151" d="M-1819.63 -7120.2l5957.35 28956.64 28288.02 -5819.79 -5957.33 -28956.64 -28288.04 5819.79zm-101.92 -68.86l28456.4 -5854.43 5992.8 29129.02 -28456.4 5854.41 -5992.8 -29129z"/>
     <path id="241" class="fil152" d="M-1887.58 -7166.1l5980.98 29071.54 28400.29 -5842.88 -5980.98 -29071.54 -28400.29 5842.88zm-101.92 -68.86l28568.67 -5877.54 6016.43 29243.93 -28568.65 5877.52 -6016.45 -29243.91z"/>
     <path id="242" class="fil0" d="M-1955.53 -7212.01l6004.63 29186.45 28512.55 -5865.97 -6004.63 -29186.47 -28512.55 5865.99zm-101.92 -68.88l28680.93 -5900.61 6040.08 29358.83 -28680.93 5900.61 -6040.08 -29358.83z"/>
     <path id="243" class="fil0" d="M-2023.46 -7257.93l6028.25 29301.37 28624.8 -5889.05 -6028.27 -29301.37 -28624.78 5889.05zm-67.95 -45.9l28737.04 -5912.16 6051.9 29416.29 -28737.04 5912.16 -6051.9 -29416.29z"/>
    </g>
    <path id="244" class="fil153 str0" d="M12971.22 9092.55c231.35,-638.55 936.74,-968.54 1575.27,-737.21 638.55,231.35 968.54,936.74 737.21,1575.29 -333.95,918.47 -846.22,1754.57 -1498.34,2466.13 -656.05,715.99 -1444.56,1300.77 -2325.79,1711.68 -1848.56,861.75 -3874.45,892.34 -5653.94,244.66 -1781.71,-648.66 -3315.3,-1974.84 -4177.8,-3824.38l-6.15 -13.81c-855.85,-1844.86 -884.7,-3864.32 -238.51,-5640.13 648.16,-1781.46 1974.33,-3315.3 3823.88,-4177.8l7.66 -3.45c881.23,-409.67 1832.76,-637.07 2796.87,-679.23 961.14,-41.93 1930.44,103.34 2849.89,438.27 638.55,231.35 968.56,936.74 737.21,1575.27 -231.35,638.55 -936.74,968.54 -1575.27,737.21 -616.86,-224.68 -1265.01,-322.1 -1905.79,-294.25 -622.51,27.14 -1245.51,175.86 -1833.5,444.21l-71.04 33.29c-1218.15,579.36 -2090.75,1592.05 -2517.43,2764.56 -427.66,1175.48 -409.67,2514.48 152.66,3743.24l30.84 66.58c579.11,1218.15 1592.03,2091 2764.56,2517.93 1185.59,431.37 2538.15,409.67 3775.54,-167.22 600.56,-279.94 1127.63,-667.16 1554.79,-1133.55 431.39,-470.83 772.49,-1029.47 997.17,-1647.29z"/>
   </g>
   <g id="_1525238740832">
    <path class="fil154 str1" d="M365.29 7015.04l2726.63 -1271.44c307.35,-143.33 676.09,-9.1 819.39,298.24l306.25 656.72c143.33,307.37 9.1,676.09 -298.24,819.41l-2726.63 1271.46c-307.35,143.31 -676.09,9.1 -819.39,-298.24l-306.25 -656.74c-143.33,-307.35 -9.1,-676.09 298.24,-819.41z"/>
    <path class="fil155 str1" d="M1012.17 9653.55l2726.63 -1271.44c307.35,-143.33 676.09,-9.12 819.41,298.24l306.23 656.72c143.33,307.35 9.12,676.09 -298.24,819.41l-2726.61 1271.44c-307.37,143.33 -676.09,9.12 -819.41,-298.24l-306.25 -656.72c-143.31,-307.35 -9.1,-676.09 298.24,-819.41z"/>
    <path class="fil156 str1" d="M2690.21 11976.95l2726.63 -1271.44c307.35,-143.33 676.09,-9.12 819.41,298.24l306.23 656.72c143.33,307.35 9.12,676.09 -298.24,819.41l-2726.61 1271.44c-307.37,143.33 -676.09,9.12 -819.41,-298.24l-306.25 -656.72c-143.33,-307.35 -9.1,-676.09 298.24,-819.41z"/>
   </g>
  </g>
 </g>
</svg>
